<svg xmlns="http://www.w3.org/2000/svg" data-name="Layer 1" viewBox="0 0 64 64"><polygon points="15.58 46 17.27 46 17.27 38 15.58 38 15.58 41.04 12.65 41.04 12.65 38 10.96 38 10.96 46 12.65 46 12.65 42.57 15.58 42.57 15.58 46"/><polygon points="20.2 46 21.89 46 21.89 39.52 23.68 39.52 23.68 38 18.36 38 18.36 39.52 20.2 39.52 20.2 46"/><polygon points="26.47 40.88 28.06 46 29.59 46 31.17 40.88 31.17 46 32.86 46 32.86 38 30.36 38 28.83 42.9 27.37 38 24.77 38 24.77 46 26.47 46 26.47 40.88"/><polygon points="38.91 44.48 36.21 44.48 36.21 38 34.52 38 34.52 46 38.91 46 38.91 44.48"/><path d="M55.93,18.67l0-.09a1,1,0,0,0-.19-.29h0l-14-14h0a1,1,0,0,0-.29-.19l-.09,0A1,1,0,0,0,41.06,4H13a1,1,0,0,0-1,1V32H9a1,1,0,0,0-1,1V51a1,1,0,0,0,1,1h3v7a1,1,0,0,0,1,1H55a1,1,0,0,0,1-1V19s0,0,0-.06A1,1,0,0,0,55.93,18.67ZM42,7.41,52.59,18H42ZM10,34H40V50H10Zm4,24V52H41a1,1,0,0,0,1-1V33a1,1,0,0,0-1-1H14V6H40V19a1,1,0,0,0,1,1H54V58Z"/></svg>