<svg xmlns="http://www.w3.org/2000/svg" data-name="Layer 1" viewBox="0 0 168 168"><circle cx="2" cy="150.25" r="2" fill="#2d4356"/><path fill="#2d4356" d="M11,148.25H8a2,2,0,0,0,0,4h3a2,2,0,0,0,0-4Z"/><path fill="#0bceb2" d="M118.15387 156.25h-8.30774a2.00641 2.00641 0 0 0 0 4h8.30774a2.00641 2.00641 0 0 0 0-4zM58.15387 156.25H49.84613a2.00641 2.00641 0 0 0 0 4h8.30774a2.00641 2.00641 0 0 0 0-4zM104 156.25H64a2 2 0 0 0 0 4H79.94v2H72a2 2 0 0 0 0 4H97a2 2 0 0 0 0-4H88.06v-2H104a2 2 0 0 0 0-4z"/><path fill="#2d4356" d="M48,58.25H74a2,2,0,0,0,0-4H48a2,2,0,0,0,0,4Z"/><path fill="#0bceb2" d="M48,66.25H81a2,2,0,0,0,0-4H48a2,2,0,0,0,0,4Z"/><path fill="#2d4356" d="M48,74.25H90a2,2,0,0,0,0-4H48a2,2,0,0,0,0,4Z"/><path fill="#0bceb2" d="M102,80.25a2.0001,2.0001,0,0,0-2-2H48a2,2,0,0,0,0,4h52A2.0001,2.0001,0,0,0,102,80.25Z"/><path fill="#2d4356" d="M105.71973 76.78613a2.00008 2.00008 0 0 0 2.56055-3.07324L98.124 65.24951l10.15625-8.46338a2.00008 2.00008 0 0 0-2.56055-3.07324l-12 10a2.00021 2.00021 0 0 0 0 3.07324zM115.46387 76.52979a1.99967 1.99967 0 0 0 2.81641.25635l12-10a2.00021 2.00021 0 0 0 0-3.07324l-12-10a2.00008 2.00008 0 0 0-2.56055 3.07324L125.876 65.24951l-10.15625 8.46338A2.00012 2.00012 0 0 0 115.46387 76.52979z"/><path fill="#0bceb2" d="M114 32.25h-6a2 2 0 0 0 0 4h6a2 2 0 0 0 0-4zM128 32.25h-6a2 2 0 0 0 0 4h6a2 2 0 0 0 0-4zM87.80487 126.34131a11.73558 11.73558 0 0 0 5.52722 1.32855c6.31061 0 10.23083-4.08032 10.23083-10.64856V104.70862a5.729 5.729 0 1 0-11.45795 0V116.1814a5.45356 5.45356 0 0 0-1.605-.2381 5.55661 5.55661 0 0 0-5.55072 5.54993A5.47019 5.47019 0 0 0 87.80487 126.34131zM90.5 119.9433a1.776 1.776 0 0 1 .68585.14868 6.01527 6.01527 0 0 0 2.14624.4472c1.99756 0 2.77289-1.49036 2.77289-3.51788V104.70862a1.729 1.729 0 1 1 3.45795 0V117.0213c0 3.816-1.669 6.64856-6.23083 6.64856a7.78125 7.78125 0 0 1-3.54749-.80493 1.50477 1.50477 0 0 1-.83533-1.3717A1.53958 1.53958 0 0 1 90.5 119.9433zM105.7865 119.22748a5.57356 5.57356 0 0 0 .8429 2.94971c2.07544 3.3512 6.37091 5.52222 10.93787 5.52222 8.476 0 11.48346-5.33453 11.48346-9.90271a9.00854 9.00854 0 0 0-2.69067-6.757 5.56536 5.56536 0 0 0 2.27264-4.4826 5.70446 5.70446 0 0 0-.97137-3.17487l-.02551-.03821-.02637-.03766c-1.9787-2.82135-5.73273-4.50574-10.04218-4.50574-7.49976 0-10.85675 4.74921-10.85675 9.45587a8.71864 8.71864 0 0 0 2.11273 5.97827A5.6192 5.6192 0 0 0 105.7865 119.22748zm5.57947-1.60986a1.7457 1.7457 0 0 1 1.31171.65582 6.8382 6.8382 0 0 0 4.88959 2.26575c2.713 0 4.02472-.894 4.02472-2.74249 0-4.35284-10.88147-2.35529-10.88147-9.54022 0-2.95154 2.1167-5.45587 6.85675-5.45587 2.98157 0 5.57544 1.10309 6.76727 2.80249a1.72166 1.72166 0 0 1 .29816.954 1.59689 1.59689 0 0 1-1.60992 1.57989 1.97176 1.97176 0 0 1-1.28131-.65582 6.16219 6.16219 0 0 0-4.17419-1.5799c-2.47473 0-3.3988 1.16266-3.3988 2.35522 0 3.90564 10.88226 2.08673 10.88226 9.54022 0 3.637-2.56427 5.90271-7.48346 5.90271a8.97331 8.97331 0 0 1-7.5426-3.637 1.60394 1.60394 0 0 1 1.34131-2.44476z"/><path fill="#2d4356" d="M160,148.25h-3a2,2,0,0,0,0,4h3a2,2,0,0,0,0-4Z"/><circle cx="166" cy="150.25" r="2" fill="#2d4356"/><path fill="#2d4356" d="M150.72131 148.25H135.47858a10.94932 10.94932 0 0 0 2.52142-7v-106a11.01245 11.01245 0 0 0-11-11H41a11.01245 11.01245 0 0 0-11 11v106a10.94932 10.94932 0 0 0 2.52142 7H17.27869a2.017 2.017 0 1 0 0 4H150.72131a2.017 2.017 0 1 0 0-4zM134 131.25H82a2.00229 2.00229 0 0 1-2-2v-32a2.00229 2.00229 0 0 1 2-2h52zm-92-96a7.00818 7.00818 0 0 1 7-7h78a7.00818 7.00818 0 0 1 7 7v5H42zm-8 0a7.00425 7.00425 0 0 1 6.50134-6.97473A10.94817 10.94817 0 0 0 38 35.25v106a10.94817 10.94817 0 0 0 2.50134 6.97473A7.00425 7.00425 0 0 1 34 141.25zm15 113a7.00818 7.00818 0 0 1-7-7v-97h92v47H82a6.00656 6.00656 0 0 0-6 6v32a6.00656 6.00656 0 0 0 6 6h52v6a7.00818 7.00818 0 0 1-7 7zM6 35.25a3 3 0 1 0-3-3A3.00344 3.00344 0 0 0 6 35.25zm0-4.5a1.5 1.5 0 1 1-1.5 1.5A1.50148 1.50148 0 0 1 6 30.75zM122 8.25a2 2 0 1 0 2 2A2.00229 2.00229 0 0 0 122 8.25zm0 3a1 1 0 1 1 1-1A1.001 1.001 0 0 1 122 11.25zM15 1.75a2 2 0 1 0 2 2A2.00229 2.00229 0 0 0 15 1.75zm0 3a1 1 0 1 1 1-1A1.001 1.001 0 0 1 15 4.75zM163.02886 4.32681a2 2 0 1 0 2 2A2.00229 2.00229 0 0 0 163.02886 4.32681zm0 3a1 1 0 1 1 1-1A1.001 1.001 0 0 1 163.02886 7.32681zM52.74746 13.25a2 2 0 1 0-2 2A2.00229 2.00229 0 0 0 52.74746 13.25zm-3 0a1 1 0 1 1 1 1A1.001 1.001 0 0 1 49.74746 13.25z"/><polygon fill="#0bceb2" points="21.636 46.999 23.122 45.044 22.183 44.512 21.229 46.702 21.197 46.702 20.228 44.527 19.272 45.075 20.744 46.984 20.744 47.015 18.443 46.718 18.443 47.782 20.759 47.485 20.759 47.516 19.272 49.424 20.164 49.988 21.182 47.782 21.213 47.782 22.152 49.972 23.138 49.409 21.636 47.531 21.636 47.5 23.997 47.782 23.997 46.718 21.636 47.031 21.636 46.999"/><polygon fill="#0bceb2" points="84.684 4.903 83.828 6.002 84.341 6.327 84.927 5.056 84.945 5.056 85.486 6.318 86.053 5.993 85.188 4.912 85.188 4.894 86.549 5.056 86.549 4.444 85.188 4.624 85.188 4.606 86.045 3.48 85.504 3.173 84.954 4.434 84.936 4.434 84.378 3.182 83.828 3.497 84.675 4.597 84.675 4.615 83.35 4.444 83.35 5.056 84.684 4.885 84.684 4.903"/><polygon fill="#0bceb2" points="163.029 57.771 163.029 56.727 160.712 57.034 160.712 57.004 162.17 55.085 161.249 54.564 160.313 56.712 160.282 56.712 159.331 54.579 158.394 55.116 159.837 56.989 159.837 57.019 157.581 56.727 157.581 57.771 159.852 57.48 159.852 57.51 158.394 59.382 159.269 59.935 160.267 57.771 160.297 57.771 161.218 59.92 162.185 59.367 160.712 57.525 160.712 57.495 163.029 57.771"/><polygon fill="#0bceb2" points="146.701 35.038 147.959 33.383 147.165 32.933 146.357 34.786 146.33 34.786 145.51 32.946 144.702 33.41 145.947 35.025 145.947 35.051 144 34.8 144 35.7 145.96 35.449 145.96 35.475 144.702 37.09 145.456 37.567 146.317 35.7 146.343 35.7 147.138 37.553 147.972 37.077 146.701 35.488 146.701 35.462 148.7 35.7 148.7 34.8 146.701 35.064 146.701 35.038"/></svg>